{
	"asset":{
		"generator":"Khronos glTF Blender I/O v5.2.40",
		"version":"2.0"
	},
	"scene":0,
	"scenes":[
		{
			"name":"Scene",
			"nodes":[
				0
			]
		}
	],
	"nodes":[
		{
			"mesh":0,
			"name":"rock_face_02"
		}
	],
	"materials":[
		{
			"doubleSided":true,
			"name":"rock_face_02",
			"normalTexture":{
				"index":0
			},
			"pbrMetallicRoughness":{
				"baseColorTexture":{
					"index":1
				},
				"metallicFactor":0,
				"metallicRoughnessTexture":{
					"index":2
				}
			}
		}
	],
	"meshes":[
		{
			"name":"rock_face_section_2_proxy",
			"primitives":[
				{
					"attributes":{
						"POSITION":0,
						"NORMAL":1,
						"TEXCOORD_0":2
					},
					"indices":3,
					"material":0
				}
			]
		}
	],
	"textures":[
		{
			"sampler":0,
			"source":0
		},
		{
			"sampler":0,
			"source":1
		},
		{
			"sampler":0,
			"source":2
		}
	],
	"images":[
		{
			"mimeType":"image/jpeg",
			"name":"rock_face_02_nor_gl_1k",
			"uri":"textures/rock_face_02_nor_gl_1k.jpg"
		},
		{
			"mimeType":"image/jpeg",
			"name":"rock_face_02_diff_1k",
			"uri":"textures/rock_face_02_diff_1k.jpg"
		},
		{
			"mimeType":"image/jpeg",
			"name":"rock_face_02_arm_1k",
			"uri":"textures/rock_face_02_arm_1k.jpg"
		}
	],
	"accessors":[
		{
			"bufferView":0,
			"componentType":5126,
			"count":1017,
			"max":[
				1.3563967943191528,
				2.4731881618499756,
				1.0367146730422974
			],
			"min":[
				-1.3560962677001953,
				-0.008072379976511002,
				-1.066213846206665
			],
			"type":"VEC3"
		},
		{
			"bufferView":1,
			"componentType":5126,
			"count":1017,
			"type":"VEC3"
		},
		{
			"bufferView":2,
			"componentType":5126,
			"count":1017,
			"type":"VEC2"
		},
		{
			"bufferView":3,
			"componentType":5123,
			"count":3600,
			"type":"SCALAR"
		}
	],
	"bufferViews":[
		{
			"buffer":0,
			"byteLength":12204,
			"byteOffset":0,
			"target":34962
		},
		{
			"buffer":0,
			"byteLength":12204,
			"byteOffset":12204,
			"target":34962
		},
		{
			"buffer":0,
			"byteLength":8136,
			"byteOffset":24408,
			"target":34962
		},
		{
			"buffer":0,
			"byteLength":7200,
			"byteOffset":32544,
			"target":34963
		}
	],
	"samplers":[
		{
			"magFilter":9729,
			"minFilter":9987
		}
	],
	"buffers":[
		{
			"byteLength":39744,
			"uri":"cliff_face.bin"
		}
	]
}
