{
	"asset":{
		"generator":"Khronos glTF Blender I/O v5.2.40",
		"version":"2.0"
	},
	"scene":0,
	"scenes":[
		{
			"name":"Scene",
			"nodes":[
				0
			]
		}
	],
	"nodes":[
		{
			"mesh":0,
			"name":"rock_moss_set_01_rock01"
		}
	],
	"materials":[
		{
			"doubleSided":true,
			"name":"rock_moss_set_01",
			"normalTexture":{
				"index":0
			},
			"pbrMetallicRoughness":{
				"baseColorTexture":{
					"index":1
				},
				"metallicFactor":0,
				"metallicRoughnessTexture":{
					"index":2
				}
			}
		}
	],
	"meshes":[
		{
			"name":"modelShape.005",
			"primitives":[
				{
					"attributes":{
						"POSITION":0,
						"NORMAL":1,
						"TEXCOORD_0":2
					},
					"indices":3,
					"material":0
				}
			]
		}
	],
	"textures":[
		{
			"sampler":0,
			"source":0
		},
		{
			"sampler":0,
			"source":1
		},
		{
			"sampler":0,
			"source":2
		}
	],
	"images":[
		{
			"mimeType":"image/jpeg",
			"name":"rock_moss_set_01_nor_gl_1k",
			"uri":"textures/rock_moss_set_01_nor_gl_1k.jpg"
		},
		{
			"mimeType":"image/jpeg",
			"name":"rock_moss_set_01_diff_1k",
			"uri":"textures/rock_moss_set_01_diff_1k.jpg"
		},
		{
			"mimeType":"image/jpeg",
			"name":"rock_moss_set_01_rough_1k",
			"uri":"textures/rock_moss_set_01_rough_1k.jpg"
		}
	],
	"accessors":[
		{
			"bufferView":0,
			"componentType":5126,
			"count":583,
			"max":[
				0.6722543239593506,
				0.8764671087265015,
				1.0065759420394897
			],
			"min":[
				-0.6736740469932556,
				0.007167880889028311,
				-1.0067466497421265
			],
			"type":"VEC3"
		},
		{
			"bufferView":1,
			"componentType":5126,
			"count":583,
			"type":"VEC3"
		},
		{
			"bufferView":2,
			"componentType":5126,
			"count":583,
			"type":"VEC2"
		},
		{
			"bufferView":3,
			"componentType":5123,
			"count":2100,
			"type":"SCALAR"
		}
	],
	"bufferViews":[
		{
			"buffer":0,
			"byteLength":6996,
			"byteOffset":0,
			"target":34962
		},
		{
			"buffer":0,
			"byteLength":6996,
			"byteOffset":6996,
			"target":34962
		},
		{
			"buffer":0,
			"byteLength":4664,
			"byteOffset":13992,
			"target":34962
		},
		{
			"buffer":0,
			"byteLength":4200,
			"byteOffset":18656,
			"target":34963
		}
	],
	"samplers":[
		{
			"magFilter":9729,
			"minFilter":9987
		}
	],
	"buffers":[
		{
			"byteLength":22856,
			"uri":"moss_rock01.bin"
		}
	]
}
